<?xml version="1.0" standalone="no"?><!DOCTYPE svg PUBLIC "-//W3C//DTD SVG 1.1//EN"
        "http://www.w3.org/Graphics/SVG/1.1/DTD/svg11.dtd">
<svg t="1725009001481" class="icon" viewBox="0 0 1024 1024" version="1.1" xmlns="http://www.w3.org/2000/svg" p-id="9715"
     width="200" height="200">
    <path d="M940.8 384l-147.2 147.2 57.6 57.6c25.6 25.6 25.6 64 0 89.6l-166.4 166.4c-102.4 102.4-275.2 102.4-390.4 6.4l-153.6 153.6c-6.4 6.4-19.2 6.4-25.6 0L12.8 902.4c-6.4-6.4-6.4-19.2 0-25.6l153.6-153.6c-102.4-108.8-96-281.6 6.4-384l166.4-166.4c25.6-25.6 64-25.6 89.6 0l57.6 57.6 147.2-147.2c25.6-25.6 64-25.6 89.6 0 25.6 25.6 25.6 64 0 89.6L576 320l128 128 147.2-147.2c25.6-25.6 64-25.6 89.6 0 25.6 19.2 25.6 64 0 83.2z"
          fill="#FCB106" p-id="9716"></path>
</svg>